<svg xmlns="http://www.w3.org/2000/svg" id="fitness-centre" width="32" height="32" viewBox="0 0 20 20"><g><path d="M0,0 H20 V20 H0 Z" fill="none"/><path d="M5.5,1H14.5c2.485,0,4.5,2.015,4.5,4.5V14.5c0,2.485-2.015,4.5-4.5,4.5H5.5c-2.485,0-4.5-2.015-4.5-4.5V5.5C1,3.015,3.015,1,5.5,1Z" fill="hsl(190, 60%, 60%)" stroke="hsl(159, 88%, 100%)" stroke-linejoin="round" stroke-miterlimit="4px" stroke-width="1.2"/><path d="M15.6 9.6v0.8h-0.8v1.6h-0.8v0.8H12.8V10.4H7.200000000000001v2.4000000000000004H6v-0.8h-0.8V10.4h-0.8V9.6h0.8V8h0.8V7.200000000000001H7.200000000000001v2.4000000000000004h5.6000000000000005V7.200000000000001h1.2000000000000002v0.8h0.8v1.6z" fill="hsl(159, 88%, 100%)"/></g></svg>