<svg xmlns="http://www.w3.org/2000/svg" id="hospital" width="32" height="32" viewBox="0 0 20 20"><g><path d="M0,0 H20 V20 H0 Z" fill="none"/><path d="M5.5,1H14.5c2.485,0,4.5,2.015,4.5,4.5V14.5c0,2.485-2.015,4.5-4.5,4.5H5.5c-2.485,0-4.5-2.015-4.5-4.5V5.5C1,3.015,3.015,1,5.5,1Z" fill="hsl(0, 70%, 70%)" stroke="hsl(159, 88%, 100%)" stroke-linejoin="round" stroke-miterlimit="4px" stroke-width="1.2"/><path d="M9.6 4.800000000000001c-0.48 0-0.8 0.32000000000000006-0.8 0.8v3.2H5.6c-0.48 0-0.8 0.32000000000000006-0.8 0.8v0.8c0 0.48 0.32000000000000006 0.8 0.8 0.8h3.2v3.2c0 0.48 0.32000000000000006 0.8 0.8 0.8h0.8c0.48 0 0.8-0.32000000000000006 0.8-0.8V11.200000000000001h3.2c0.48 0 0.8-0.32000000000000006 0.8-0.8V9.6c0-0.48-0.32000000000000006-0.8-0.8-0.8H11.200000000000001V5.6c0-0.48-0.32000000000000006-0.8-0.8-0.8H9.6z" fill="hsl(159, 88%, 100%)"/></g></svg>