<svg xmlns="http://www.w3.org/2000/svg" id="landmark" width="32" height="32" viewBox="0 0 20 20"><g><path d="M0,0 H20 V20 H0 Z" fill="none"/><path d="M5.5,1H14.5c2.485,0,4.5,2.015,4.5,4.5V14.5c0,2.485-2.015,4.5-4.5,4.5H5.5c-2.485,0-4.5-2.015-4.5-4.5V5.5C1,3.015,3.015,1,5.5,1Z" fill="hsl(320, 70%, 75%)" stroke="hsl(159, 88%, 100%)" stroke-linejoin="round" stroke-miterlimit="4px" stroke-width="1.2"/><path d="M14 13.6H13.6v-0.4c0-0.24-0.16000000000000003-0.4-0.4-0.4H12.8V8.8h0.8l0.8-1.6c-0.8 0.08000000000000002-1.6 0.08000000000000002-2.4000000000000004 0-0.6400000000000001-0.48-1.1199999999999999-0.96-1.6-1.6v-0.4c0-0.24-0.16000000000000003-0.4-0.4-0.4s-0.4 0.16000000000000003-0.4 0.4V5.6c-0.48 0.6400000000000001-0.96 1.1199999999999999-1.6 1.6-0.8 0.08000000000000002-1.6 0.08000000000000002-2.4000000000000004 0l0.8 1.6h0.8v4h-0.4c-0.24 0-0.4 0.16000000000000003-0.4 0.4v0.4h-0.4c-0.24 0-0.4 0.16000000000000003-0.4 0.4v0.4h8.8v-0.4c0-0.24-0.16000000000000003-0.4-0.4-0.4zM9.6 12.8H8V8.8h1.6v4z m2.4000000000000004 0H10.4V8.8h1.6v4z" fill="hsl(159, 88%, 100%)"/></g></svg>