<svg xmlns="http://www.w3.org/2000/svg" id="laundry" width="32" height="32" viewBox="0 0 20 20"><g><path d="M0,0 H20 V20 H0 Z" fill="none"/><path d="M5.5,1H14.5c2.485,0,4.5,2.015,4.5,4.5V14.5c0,2.485-2.015,4.5-4.5,4.5H5.5c-2.485,0-4.5-2.015-4.5-4.5V5.5C1,3.015,3.015,1,5.5,1Z" fill="hsl(260, 70%, 75%)" stroke="hsl(159, 88%, 100%)" stroke-linejoin="round" stroke-miterlimit="4px" stroke-width="1.2"/><path d="M10.4 4.800000000000001L8.8 6.4H6.4S5.6 6.4 5.6 7.200000000000001v7.2c0 0.8 0.8 0.8 0.8 0.8h7.2s0.8 0 0.8-0.8V5.6c0-0.8-0.8-0.8-0.8-0.8H10.4z m0.4 0.8h1.6a0.3992 0.3992 0 1 1 0 0.8h-1.6a0.3992 0.3992 0 1 1 0-0.8z m-0.8 3.2a2.4000000000000004 2.4000000000000004 0 1 1 0 4.800000000000001 2.4000000000000004 2.4000000000000004 0 0 1 0-4.800000000000001z" fill="hsl(159, 88%, 100%)"/></g></svg>