<svg xmlns="http://www.w3.org/2000/svg" id="mobile-phone" width="32" height="32" viewBox="0 0 20 20"><g><path d="M0,0 H20 V20 H0 Z" fill="none"/><path d="M5.5,1H14.5c2.485,0,4.5,2.015,4.5,4.5V14.5c0,2.485-2.015,4.5-4.5,4.5H5.5c-2.485,0-4.5-2.015-4.5-4.5V5.5C1,3.015,3.015,1,5.5,1Z" fill="hsl(210, 70%, 70%)" stroke="hsl(159, 88%, 100%)" stroke-linejoin="round" stroke-miterlimit="4px" stroke-width="1.2"/><path d="M12 5.6v-0.4a0.4 0.4 0 0 0-0.8 0V5.6H8a0.8 0.8 0 0 0-0.8 0.8v8a0.8 0.8 0 0 0 0.8 0.8h4a0.8 0.8 0 0 0 0.8-0.8V6.4a0.8 0.8 0 0 0-0.8-0.8zM8.8 14.4H8v-0.8h0.8z m0-1.6H8v-0.8h0.8z m0-1.6H8V10.4h0.8z m1.6 3.2H9.6v-0.8h0.8z m0-1.6H9.6v-0.8h0.8z m0-1.6H9.6V10.4h0.8z m1.6 3.2H11.200000000000001v-0.8h0.8z m0-1.6H11.200000000000001v-0.8h0.8z m0-1.6H11.200000000000001V10.4h0.8z m0-2a0.4 0.4 0 0 1-0.4 0.4h-3.2a0.4 0.4 0 0 1-0.4-0.4v-2.4000000000000004a0.4 0.4 0 0 1 0.4-0.4h3.2a0.4 0.4 0 0 1 0.4 0.4z" fill="hsl(159, 88%, 100%)"/></g></svg>