<svg xmlns="http://www.w3.org/2000/svg" id="body_1" width="10" height="8"><g transform="matrix(0.016 0 0 0.016 1 -0)"><g><path d="M443.05 348.77C 393.75 337.61 327 350.4 327 350.4C 278.65 358.77 240.72 342.96 240.72 342.96C 276.56 323.43 277.88 279.46 277.87 272.78C 277.87 272.49 277.86 272.21 277.86 271.92C 277.86 231.08002 310.96997 197.98001 351.8 197.98001C 376.24 197.98001 397.90997 209.84001 411.37 228.11002C 414.41 232.24002 410.22998 237.83002 405.4 236.11002C 400.71 234.44002 395.63 233.57002 390.34 233.67001C 367.72998 234.1 349.28 252.53001 348.83 275.14C 348.40997 296.41 363.66998 314.2 383.84 317.72003C 386.82 318.24002 389.85 318.35004 392.86 318.23004C 399.67 317.93 425.42 318.98 443.05 348.77z" fill="#91EDFF"/><path d="M370.23 363.59C 293.89 346.31 190.54001 366.11 190.54001 366.11C 115.68001 379.06998 56.950012 354.59 56.950012 354.59C 112.44002 324.36 114.49001 256.27 114.47002 245.92C 114.460014 245.48 114.45002 245.03 114.45002 244.59C 114.45002 181.36 165.71002 130.1 228.94002 130.1C 266.78003 130.1 300.33002 148.46 321.17 176.76001C 325.88 183.15001 319.40002 191.81001 311.93002 189.14001C 304.66003 186.55002 296.81003 185.20001 288.62003 185.36002C 253.61003 186.03001 225.04002 214.57 224.34003 249.58002C 223.68002 282.52002 247.32002 310.06003 278.55002 315.51C 283.16 316.31 287.85 316.49002 292.52002 316.29C 303.06 315.84 342.93 317.46 370.23 363.59z" fill="#7191F0"/><path d="M332.69 162.35C 332.69 162.35 328.68 137.33 350.76 132.38C 350.76 132.38 360.12 130.36 364.17 138.69C 364.17 138.69 367.25 148.33 354.31003 151.42C 354.31 151.41 338.52 153.11 332.69 162.35z" fill="#7191F0"/><path d="M363.62 148.87C 363.62 148.87 367.77 134.11 381.15 136.98999C 381.15 136.98999 386.8 138.24998 386.91998 143.85999C 386.91998 143.85999 386.15997 149.93999 378.27 148.34999C 378.27 148.35 369.17 145.27 363.62 148.87z" fill="#7191F0"/></g></g></svg>