<svg xmlns="http://www.w3.org/2000/svg" id="parking" width="32" height="32" viewBox="0 0 20 20"><g><path d="M0,0 H20 V20 H0 Z" fill="none"/><path d="M5.5,1H14.5c2.485,0,4.5,2.015,4.5,4.5V14.5c0,2.485-2.015,4.5-4.5,4.5H5.5c-2.485,0-4.5-2.015-4.5-4.5V5.5C1,3.015,3.015,1,5.5,1Z" fill="hsl(260, 70%, 75%)" stroke="hsl(159, 88%, 100%)" stroke-linejoin="round" stroke-miterlimit="4px" stroke-width="1.2"/><path d="M7.200000000000001 5.6v8.8h1.6V11.200000000000001h2a2.8000000000000003 2.8000000000000003 0 1 0 0-5.6000000000000005H7.200000000000001z m1.6 4V7.200000000000001h2a1.2000000000000002 1.2000000000000002 0 1 1 0 2.4000000000000004H8.8z" fill="hsl(159, 88%, 100%)"/></g></svg>