<svg xmlns="http://www.w3.org/2000/svg" id="ranger-station" width="32" height="32" viewBox="0 0 20 20"><g><path d="M0,0 H20 V20 H0 Z" fill="none"/><path d="M5.5,1H14.5c2.485,0,4.5,2.015,4.5,4.5V14.5c0,2.485-2.015,4.5-4.5,4.5H5.5c-2.485,0-4.5-2.015-4.5-4.5V5.5C1,3.015,3.015,1,5.5,1Z" fill="hsl(210, 20%, 58%)" stroke="hsl(159, 88%, 100%)" stroke-linejoin="round" stroke-miterlimit="4px" stroke-width="1.2"/><path d="M11.200000000000001 4.4l-1.6 0.8v3.0184L5.6 10.4v4.800000000000001h3.2v-3.2h2.4000000000000004v3.2h3.2V10.4L10.4 8.2184V7.200000000000001l0.8-0.4 1.6 0.8 1.6-0.8v-2.4000000000000004l-1.6 0.8-1.6-0.8z" fill="hsl(159, 88%, 100%)"/></g></svg>