<svg xmlns="http://www.w3.org/2000/svg" id="religious-shinto" width="32" height="32" viewBox="0 0 20 20"><g><path d="M0,0 H20 V20 H0 Z" fill="none"/><path d="M5.5,1H14.5c2.485,0,4.5,2.015,4.5,4.5V14.5c0,2.485-2.015,4.5-4.5,4.5H5.5c-2.485,0-4.5-2.015-4.5-4.5V5.5C1,3.015,3.015,1,5.5,1Z" fill="hsl(210, 20%, 58%)" stroke="hsl(159, 88%, 100%)" stroke-linejoin="round" stroke-miterlimit="4px" stroke-width="1.2"/><path d="M14 6h-8a0.756 0.756 0 0 0-0.8 0.8 0.756 0.756 0 0 0 0.8 0.8H6.4V13.6a0.756 0.756 0 0 0 0.8 0.8 0.756 0.756 0 0 0 0.8-0.8V10.4h4v3.2a0.756 0.756 0 0 0 0.8 0.8 0.756 0.756 0 0 0 0.8-0.8V7.6h0.4a0.756 0.756 0 0 0 0.8-0.8 0.756 0.756 0 0 0-0.8-0.8zM12 8.8H10.4V7.6h1.6zM9.6 8.8H8V7.6h1.6z" fill="hsl(159, 88%, 100%)"/></g></svg>