<svg xmlns="http://www.w3.org/2000/svg" id="religious-christian" width="32" height="32" viewBox="0 0 20 20"><g><path d="M0,0 H20 V20 H0 Z" fill="none"/><path d="M5.5,1H14.5c2.485,0,4.5,2.015,4.5,4.5V14.5c0,2.485-2.015,4.5-4.5,4.5H5.5c-2.485,0-4.5-2.015-4.5-4.5V5.5C1,3.015,3.015,1,5.5,1Z" fill="hsl(210, 20%, 58%)" stroke="hsl(159, 88%, 100%)" stroke-linejoin="round" stroke-miterlimit="4px" stroke-width="1.2"/><path d="M8.8 4.764V7.200000000000001H6.4v2.4000000000000004h2.4000000000000004v6.4h2.4000000000000004V9.6h2.4000000000000004V7.200000000000001H11.200000000000001V4.800000000000001c0-0.8-0.7824-0.8-0.7824-0.8H9.592S8.8 4 8.8 4.764z" fill="hsl(159, 88%, 100%)"/></g></svg>