<svg xmlns="http://www.w3.org/2000/svg" id="shoe" width="32" height="32" viewBox="0 0 20 20"><g><path d="M0,0 H20 V20 H0 Z" fill="none"/><path d="M5.5,1H14.5c2.485,0,4.5,2.015,4.5,4.5V14.5c0,2.485-2.015,4.5-4.5,4.5H5.5c-2.485,0-4.5-2.015-4.5-4.5V5.5C1,3.015,3.015,1,5.5,1Z" fill="hsl(210, 70%, 70%)" stroke="hsl(159, 88%, 100%)" stroke-linejoin="round" stroke-miterlimit="4px" stroke-width="1.2"/><path d="M11.6 9.6a7.976000000000001 7.976000000000001 0 0 1-1.052-0.7584L8.808 6.5768a0.4464000000000001 0.4464000000000001 0 0 0-0.8 0.22320000000000004H8V8H6.5672a0.4 0.4 0 0 1-0.2856-0.1184S6 7.200000000000001 5.6 7.200000000000001h-0.4a0.4 0.4 0 0 0-0.4 0.4V11.200000000000001h4.4c1.2000000000000002 0 1.6 0.8 2.8000000000000003 0.8h3.2v-0.4C15.200000000000001 10.4 12.437600000000002 10.0752 11.6 9.6z m0 3.2a2.5048 2.5048 0 0 1-1.2208-0.35760000000000003A3.28 3.28 0 0 0 8.8 12H4.800000000000001v1.2000000000000002a0.4 0.4 0 0 0 0.4 0.4h3.2a0.4 0.4 0 0 0 0.4-0.4V12.8a2.5072 2.5072 0 0 1 1.2208 0.35760000000000003A3.28 3.28 0 0 0 11.6 13.6h3.2a0.4 0.4 0 0 0 0.4-0.4V12.8z" fill="hsl(159, 88%, 100%)"/></g></svg>