<svg xmlns="http://www.w3.org/2000/svg" id="suitcase" width="32" height="32" viewBox="0 0 20 20"><g><path d="M0,0 H20 V20 H0 Z" fill="none"/><path d="M5.5,1H14.5c2.485,0,4.5,2.015,4.5,4.5V14.5c0,2.485-2.015,4.5-4.5,4.5H5.5c-2.485,0-4.5-2.015-4.5-4.5V5.5C1,3.015,3.015,1,5.5,1Z" fill="hsl(260, 70%, 75%)" stroke="hsl(159, 88%, 100%)" stroke-linejoin="round" stroke-miterlimit="4px" stroke-width="1.2"/><path d="M7.6 7.200000000000001V5.6a0.8 0.8 0 0 1 0.8-0.8h3.2a0.8 0.8 0 0 1 0.8 0.8v1.6H13.6a0.8 0.8 0 0 1 0.8 0.8v4.800000000000001a0.8 0.8 0 0 1-0.8 0.8H6.4a0.8 0.8 0 0 1-0.8-0.8V8a0.8 0.8 0 0 1 0.8-0.8h1.2000000000000002z m0.8-1.6v1.6h3.2V5.6h-3.2z" fill="hsl(159, 88%, 100%)"/></g></svg>