<svg xmlns="http://www.w3.org/2000/svg" id="watch" width="32" height="32" viewBox="0 0 20 20"><g><path d="M0,0 H20 V20 H0 Z" fill="none"/><path d="M5.5,1H14.5c2.485,0,4.5,2.015,4.5,4.5V14.5c0,2.485-2.015,4.5-4.5,4.5H5.5c-2.485,0-4.5-2.015-4.5-4.5V5.5C1,3.015,3.015,1,5.5,1Z" fill="hsl(210, 70%, 70%)" stroke="hsl(159, 88%, 100%)" stroke-linejoin="round" stroke-miterlimit="4px" stroke-width="1.2"/><path d="M14 9.6H13.6a0.3408 0.3408 0 0 0-0.039200000000000006 0.008A3.5872 3.5872 0 0 0 12 7.008000000000001V5.2a0.4 0.4 0 0 0-0.4-0.4h-3.2a0.4 0.4 0 0 0-0.4 0.4v1.8079999999999998a3.6 3.6 0 0 0 0 5.984000000000001v1.8079999999999998a0.4 0.4 0 0 0 0.4 0.4h3.2a0.4 0.4 0 0 0 0.4-0.4v-1.8079999999999998a3.5888 3.5888 0 0 0 1.5608000000000002-2.6A0.3408 0.3408 0 0 0 13.6 10.4h0.4a0.4 0.4 0 0 0 0-0.8z m-4 3.2A2.8000000000000003 2.8000000000000003 0 1 1 12.8 10 2.8000000000000003 2.8000000000000003 0 0 1 10 12.8zM11.200000000000001 9.6H10.4V8.4a0.4 0.4 0 0 0-0.8 0v1.6a0.4 0.4 0 0 0 0.4 0.4H11.200000000000001a0.4 0.4 0 0 0 0-0.8z" fill="hsl(159, 88%, 100%)"/></g></svg>