<?xml version="1.0" encoding="UTF-8"?>
<svg width="752pt" height="752pt" version="1.1" viewBox="0 0 752 752" xmlns="http://www.w3.org/2000/svg">
 <path d="m576.38 202.98h-54.703v18.137h-18.141v18.273h-18.277v18.141h-18.141v18.285h-18.273v18.137h-18.141v18.281h-18.289v18.137h-18.137v18.281h-18.277v18.281h-18.277v18.137h-18.141v18.277h-18.273v18.137h-18.141v18.285h-18.285v-18.285h-18.137v-18.137h-18.281v-18.277h-18.133v-18.137h-18.285v-18.281h-54.555v91.117h18.137v18.137h18.281v18.277h18.137v18.137h18.285v18.285h18.133v18.137h18.281v18.281h54.562v-18.281h18.273v-18.137h18.141v-18.285h18.277v-18.137h18.277v-18.277h18.137v-18.137h18.289v-18.285h18.141v-18.137h18.273v-18.277h18.141v-18.137h18.277v-18.281h18.141v-18.281h18.285v-18.137h18.137v-18.281h18.281v-18.137h18.137v-72.836z"/>
</svg>
