<?xml version="1.0" encoding="UTF-8"?>
<svg width="752pt" height="752pt" version="1.1" viewBox="0 0 752 752" xmlns="http://www.w3.org/2000/svg">
 <path d="m576.38 202.98h-54.695v18.137h-18.137v18.277h-18.281v18.137h-18.133v18.281h-18.281v18.137h-18.137v18.281h-18.281v18.137h-18.137v18.277h-18.277v18.281h-18.281v18.137h-18.137v18.277h-18.277v18.137h-18.137v18.281h-18.281v-18.281h-18.137v-18.137h-18.281v-18.277h-18.133v-18.137h-18.281v-18.281h-54.582v91.113h18.137v18.137h18.281v18.277h18.137v18.137h18.281v18.281h18.133v18.137h18.281v18.281h54.555v-18.281h18.277v-18.137h18.137v-18.281h18.281v-18.137h18.277v-18.277h18.137v-18.137h18.281v-18.281h18.137v-18.137h18.281v-18.277h18.133v-18.137h18.281v-18.281h18.137v-18.277h18.281v-18.137h18.137v-18.281h18.277v-18.137h18.137v-72.832zm0 36.41v18.137h-18.277v18.281h-18.137v18.137h-18.281v18.281h-18.137v18.137h-18.281v18.277h-18.133v18.281h-18.281v18.137h-18.137v18.277h-18.281v18.137h-18.137v18.281h-18.277v18.137h-18.281v18.277h-18.137v18.137h-18.277v18.281h-18.137v18.137h-18.281v-18.137h-18.137v-18.281h-18.281v-18.137h-18.133v-18.277h-18.281v-18.137h-18.137v-18.281l-18.309 0.003906v-54.551h18.281v18.137h18.137v18.277h18.281v18.137h18.133v18.281h18.281v18.137h54.555v-18.137h18.277v-18.281h18.137v-18.137h18.281v-18.277h18.277v-18.137h18.137v-18.281h18.281v-18.277h18.137v-18.137h18.281v-18.281h18.133v-18.137h18.281v-18.281h18.137v-18.137h18.281v-18.277h36.414v18.273z"/>
</svg>
