<?xml version="1.0" encoding="UTF-8"?>
<svg width="752pt" height="752pt" version="1.1" viewBox="0 0 752 752" xmlns="http://www.w3.org/2000/svg">
 <path d="m576.38 412.44h-36.418v18.234h-54.703v18.191h-90.98v-18.191h-36.551v-18.234h-18.141v-36.465h-18.281v-18.227h-18.137v-36.426h-18.285v-54.598h18.285v-36.422h18.137v-72.84h-36.422v18.188h-36.418v18.234h-18.137v18.188h-18.277v18.23h-18.137v18.184h-18.285v54.652h-18.137v145.73h18.137v36.414h18.285v18.234h18.137v18.188h18.277v18.227h18.137v18.188h18.281v18.238h54.559v18.184h109.4v-18.184h54.555v-18.238h36.418v-18.188h18.285v-18.227h18.129v-18.188h18.289v-18.234h18.137v-72.84z"/>
</svg>
