<?xml version="1.0" encoding="UTF-8"?>
<svg width="752pt" height="752pt" version="1.1" viewBox="0 0 752 752" xmlns="http://www.w3.org/2000/svg">
 <g>
  <path d="m266.75 467.11v18.184h-18.285v18.234h-18.137v18.184h-18.277v18.234h36.414v-18.234h18.285v-18.184h18.141v-36.418z"/>
  <path d="m266.75 248.5v-18.184h-18.285v-18.281h-36.414v18.281h18.277v18.184h18.137v18.234h18.285v18.184h18.141v-36.418z"/>
  <path d="m230.33 357.76h-72.836v36.516h90.973v-36.516z"/>
  <path d="m521.68 521.68v-18.184h-18.141v-18.234h-18.285v-18.184h-18.137v36.418h18.137v18.184h18.285v18.234h36.414v-18.234z"/>
  <path d="m521.68 212.01h-18.141v18.277h-18.285v18.188h-18.137v36.418h18.137v-18.188h18.285v-18.23h18.141v-18.188h18.273v-18.277z"/>
  <path d="m376 503.5v0.027344h-18.273v91.023h18.273v-0.023437h18.277v-91.027z"/>
  <path d="m576.38 357.73h-72.84v36.516h90.977v-36.516z"/>
  <path d="m376 157.46v0.023438h-18.273v91.023h18.273v-0.027344h18.277v-91.02z"/>
  <path d="m467.11 339.55v-36.422h-18.273v-18.23h-36.426v-18.188h-36.414v0.03125h-36.414v18.184h-36.422v18.234h-18.273v36.418h-18.141v72.836h18.141v36.418h18.273v18.281h36.422v18.184h36.414v-0.027344h36.414v-18.184h36.426v-18.281h18.273v-36.418h18.137v-72.836z"/>
 </g>
</svg>
