<svg xmlns="http://www.w3.org/2000/svg" id="american-football" width="32" height="32" viewBox="0 0 20 20"><g><path d="M0,0 H20 V20 H0 Z" fill="none"/><path d="M5.5,1H14.5c2.485,0,4.5,2.015,4.5,4.5V14.5c0,2.485-2.015,4.5-4.5,4.5H5.5c-2.485,0-4.5-2.015-4.5-4.5V5.5C1,3.015,3.015,1,5.5,1Z" fill="hsl(190, 60%, 60%)" stroke="hsl(159, 88%, 100%)" stroke-linejoin="round" stroke-miterlimit="4px" stroke-width="1.2"/><path d="M10.024000000000001 6.4C6.4719999999999995 6.4 4.800000000000001 10 4.800000000000001 10S6.4719999999999995 13.6 10.024000000000001 13.6 15.200000000000001 10 15.200000000000001 10 13.6 6.4 10.024000000000001 6.4zM12.8 9.6v1.2000000000000002a0.4 0.4 0 0 1-0.8 0V10.4H10.4v0.4a0.4 0.4 0 0 1-0.8 0V10.4H8v0.4a0.4 0.4 0 0 1-0.8 0v-1.6a0.4 0.4 0 0 1 0.8 0V9.6h1.6v-0.4a0.4 0.4 0 0 1 0.8 0V9.6h1.6v-0.4a0.4 0.4 0 0 1 0.8 0V9.6z" fill="hsl(159, 88%, 100%)"/></g></svg>