<svg xmlns="http://www.w3.org/2000/svg" id="art-gallery" width="32" height="32" viewBox="0 0 20 20"><g><path d="M0,0 H20 V20 H0 Z" fill="none"/><path d="M5.5,1H14.5c2.485,0,4.5,2.015,4.5,4.5V14.5c0,2.485-2.015,4.5-4.5,4.5H5.5c-2.485,0-4.5-2.015-4.5-4.5V5.5C1,3.015,3.015,1,5.5,1Z" fill="hsl(320, 70%, 75%)" stroke="hsl(159, 88%, 100%)" stroke-linejoin="round" stroke-miterlimit="4px" stroke-width="1.2"/><path d="M12.568000000000001 6.4L10.28 4.12a0.4 0.4 0 0 0-0.5656-0.0024000000000000002L9.712 4.12 7.432 6.4H5.2a0.4 0.4 0 0 0-0.4 0.4v7.2a0.4 0.4 0 0 0 0.4 0.4h9.600000000000001a0.4 0.4 0 0 0 0.4-0.4v-7.2a0.4 0.4 0 0 0-0.4-0.4zM10 4.968L11.432 6.4H8.568000000000001zM14.4 13.6H5.6V7.200000000000001h8.8zM8 9.6a0.8 0.8 0 1 1 0-1.6 0.8 0.8 0 0 1 0 1.6z m5.6000000000000005 3.2H7.6L8.8 10.4l1 2L11.6 8.8z" fill="hsl(159, 88%, 100%)"/></g></svg>