<svg xmlns="http://www.w3.org/2000/svg" id="attraction" width="32" height="32" viewBox="0 0 20 20"><g><path d="M0,0 H20 V20 H0 Z" fill="none"/><path d="M5.5,1H14.5c2.485,0,4.5,2.015,4.5,4.5V14.5c0,2.485-2.015,4.5-4.5,4.5H5.5c-2.485,0-4.5-2.015-4.5-4.5V5.5C1,3.015,3.015,1,5.5,1Z" fill="hsl(320, 70%, 75%)" stroke="hsl(159, 88%, 100%)" stroke-linejoin="round" stroke-miterlimit="4px" stroke-width="1.2"/><path d="M8.8 5.6c-0.44320000000000004 0-0.6016 0.404-0.8 0.8l-0.4 0.8h-1.6C5.3352 7.200000000000001 4.800000000000001 7.735200000000001 4.800000000000001 8.4v4c0 0.6648000000000001 0.5352 1.2000000000000002 1.2000000000000002 1.2000000000000002h8c0.6648000000000001 0 1.2000000000000002-0.5352 1.2000000000000002-1.2000000000000002v-4c0-0.6648000000000001-0.5352-1.2000000000000002-1.2000000000000002-1.2000000000000002h-1.6L12 6.4c-0.2-0.4-0.3568-0.8-0.8-0.8H8.8zM6 8a0.4 0.4 0 1 1 0 0.8 0.4 0.4 0 0 1 0-0.8z m4 0a2.4000000000000004 2.4000000000000004 0 1 1 0 4.800000000000001 2.4000000000000004 2.4000000000000004 0 0 1 0-4.800000000000001z m0 1.2000000000000002a1.2000000000000002 1.2000000000000002 0 0 0 0 2.4000000000000004 1.2000000000000002 1.2000000000000002 0 0 0 0-2.4000000000000004z" fill="hsl(159, 88%, 100%)"/></g></svg>