<svg xmlns="http://www.w3.org/2000/svg" id="bakery" width="32" height="32" viewBox="0 0 20 20"><g><path d="M0,0 H20 V20 H0 Z" fill="none"/><path d="M5.5,1H14.5c2.485,0,4.5,2.015,4.5,4.5V14.5c0,2.485-2.015,4.5-4.5,4.5H5.5c-2.485,0-4.5-2.015-4.5-4.5V5.5C1,3.015,3.015,1,5.5,1Z" fill="hsl(210, 70%, 70%)" stroke="hsl(159, 88%, 100%)" stroke-linejoin="round" stroke-miterlimit="4px" stroke-width="1.2"/><path d="M8.2352 7.505599999999999L8.8 11.6a0.7832 0.7832 0 0 0 0.8 0.8h0.8a0.7832 0.7832 0 0 0 0.8-0.8l0.5648-4.0944C11.7648 6.4 10 6.4 10 6.4S8.232800000000001 6.4 8.2352 7.505599999999999zM6.800000000000001 8C5.6 8 5.6 8.8 5.6 8.8l0.8 3.2h1.2000000000000002a0.6344000000000001 0.6344000000000001 0 0 0 0.6352000000000001-0.6120000000000001L7.6 8z m-1.6 2a1.2264 1.2264 0 0 0-0.8472 0.3296A1.0928000000000002 1.0928000000000002 0 0 0 4 11.0352V12.8h0.7056A0.8160000000000001 0.8160000000000001 0 0 0 5.6 12z m8-2C14.4 8 14.4 8.8 14.4 8.8l-0.8 3.2h-1.2000000000000002a0.6344000000000001 0.6344000000000001 0 0 1-0.6352000000000001-0.6120000000000001L12.4 8z m1.6 2a1.2264 1.2264 0 0 1 0.8472 0.3296 1.0928000000000002 1.0928000000000002 0 0 1 0.3528 0.7056V12.8h-0.7056A0.8160000000000001 0.8160000000000001 0 0 1 14.4 12z" fill="hsl(159, 88%, 100%)"/></g></svg>