<svg xmlns="http://www.w3.org/2000/svg" id="cafe" width="32" height="32" viewBox="0 0 20 20"><g><path d="M0,0 H20 V20 H0 Z" fill="none"/><path d="M5.5,1H14.5c2.485,0,4.5,2.015,4.5,4.5V14.5c0,2.485-2.015,4.5-4.5,4.5H5.5c-2.485,0-4.5-2.015-4.5-4.5V5.5C1,3.015,3.015,1,5.5,1Z" fill="hsl(40, 95%, 55%)" stroke="hsl(159, 88%, 100%)" stroke-linejoin="round" stroke-miterlimit="4px" stroke-width="1.2"/><path d="M13.6 8h-1.6V6.4H5.6v3.2a3.2 3.2 0 0 0 5.960000000000001 1.6H13.6a1.6 1.6 0 1 0 0-3.2z m0 2.4000000000000004H11.888A3.2 3.2 0 0 0 12 9.6V8.8h1.6a0.8 0.8 0 1 1 0 1.6z m-1.6 3.6a0.4 0.4 0 0 1-0.4 0.4h-5.6000000000000005a0.4 0.4 0 0 1 0-0.8h5.6000000000000005a0.4 0.4 0 0 1 0.4 0.4z" fill="hsl(159, 88%, 100%)"/></g></svg>