<svg xmlns="http://www.w3.org/2000/svg" id="campsite" width="32" height="32" viewBox="0 0 20 20"><g><path d="M0,0 H20 V20 H0 Z" fill="none"/><path d="M5.5,1H14.5c2.485,0,4.5,2.015,4.5,4.5V14.5c0,2.485-2.015,4.5-4.5,4.5H5.5c-2.485,0-4.5-2.015-4.5-4.5V5.5C1,3.015,3.015,1,5.5,1Z" fill="hsl(110, 93%, 19%)" stroke="hsl(159, 88%, 100%)" stroke-linejoin="round" stroke-miterlimit="4px" stroke-width="1.2"/><path d="M15.200000000000001 12v0.8a0.8 0.8 0 0 1-0.8 0.8H5.6a0.8 0.8 0 0 1-0.8-0.8v-0.8a0.8 0.8 0 0 1 0.8-0.8h0.2l3.8256-6.1936a0.44000000000000006 0.44000000000000006 0 0 1 0.7488000000000001 0L14.200000000000001 11.200000000000001H14.4a0.8 0.8 0 0 1 0.8 0.8z m-2.8000000000000003-0.8l-2.4000000000000004-4-2.4000000000000004 4h4.800000000000001z" fill="hsl(159, 88%, 100%)"/></g></svg>