<svg xmlns="http://www.w3.org/2000/svg" id="farm" width="32" height="32" viewBox="0 0 20 20"><g><path d="M0,0 H20 V20 H0 Z" fill="none"/><path d="M5.5,1H14.5c2.485,0,4.5,2.015,4.5,4.5V14.5c0,2.485-2.015,4.5-4.5,4.5H5.5c-2.485,0-4.5-2.015-4.5-4.5V5.5C1,3.015,3.015,1,5.5,1Z" fill="hsl(210, 20%, 58%)" stroke="hsl(159, 88%, 100%)" stroke-linejoin="round" stroke-miterlimit="4px" stroke-width="1.2"/><path d="M10.4 8.8L8 7.200000000000001 5.6 8.8 4.800000000000001 10.4v3.2h1.6v-1.6h3.2v1.6h1.6V10.4zM8.8 10.4H7.200000000000001V8.8h1.6z m6.4 3.2h-2.4000000000000004V6a1.2000000000000002 1.2000000000000002 0 1 1 2.4000000000000004 0z" fill="hsl(159, 88%, 100%)"/></g></svg>