<svg xmlns="http://www.w3.org/2000/svg" id="ice-cream" width="32" height="32" viewBox="0 0 20 20"><g><path d="M0,0 H20 V20 H0 Z" fill="none"/><path d="M5.5,1H14.5c2.485,0,4.5,2.015,4.5,4.5V14.5c0,2.485-2.015,4.5-4.5,4.5H5.5c-2.485,0-4.5-2.015-4.5-4.5V5.5C1,3.015,3.015,1,5.5,1Z" fill="hsl(40, 95%, 55%)" stroke="hsl(159, 88%, 100%)" stroke-linejoin="round" stroke-miterlimit="4px" stroke-width="1.2"/><path d="M8.352000000000002 10.536a2.7784 2.7784 0 0 0 1.6-0.504 2.8000000000000003 2.8000000000000003 0 0 0 1.2480000000000002 0.48h0.35200000000000004L10.4 14.959999999999999a0.4 0.4 0 0 1-0.7360000000000001 0z m4.800000000000001-2.7784a1.6 1.6 0 0 1-3.2 0 1.6 1.6 0 1 1-1.6-1.6h0.096a1.6 1.6 0 1 1 3 0h0.10400000000000001A1.6 1.6 0 0 1 13.151200000000001 7.76z" fill="hsl(159, 88%, 100%)"/></g></svg>