<svg xmlns="http://www.w3.org/2000/svg" id="information" width="32" height="32" viewBox="0 0 20 20"><g><path d="M0,0 H20 V20 H0 Z" fill="none"/><path d="M5.5,1H14.5c2.485,0,4.5,2.015,4.5,4.5V14.5c0,2.485-2.015,4.5-4.5,4.5H5.5c-2.485,0-4.5-2.015-4.5-4.5V5.5C1,3.015,3.015,1,5.5,1Z" fill="hsl(210, 20%, 58%)" stroke="hsl(159, 88%, 100%)" stroke-linejoin="round" stroke-miterlimit="4px" stroke-width="1.2"/><path d="M10 4.800000000000001C9.36 4.800000000000001 8.8 5.36 8.8 6S9.36 7.200000000000001 10 7.200000000000001 11.200000000000001 6.640000000000001 11.200000000000001 6 10.64 4.800000000000001 10 4.800000000000001zM7.200000000000001 8v0.8s1.6 0 1.6 1.6v1.6c0 1.6-1.6 1.6-1.6 1.6v0.8h5.6000000000000005v-0.8s-1.6 0-1.6-1.6V8.8c0-0.4-0.4-0.8-0.8-0.8H7.200000000000001z" fill="hsl(159, 88%, 100%)"/></g></svg>