<svg xmlns="http://www.w3.org/2000/svg" id="jewelry-store" width="32" height="32" viewBox="0 0 20 20"><g><path d="M0,0 H20 V20 H0 Z" fill="none"/><path d="M5.5,1H14.5c2.485,0,4.5,2.015,4.5,4.5V14.5c0,2.485-2.015,4.5-4.5,4.5H5.5c-2.485,0-4.5-2.015-4.5-4.5V5.5C1,3.015,3.015,1,5.5,1Z" fill="hsl(210, 70%, 70%)" stroke="hsl(159, 88%, 100%)" stroke-linejoin="round" stroke-miterlimit="4px" stroke-width="1.2"/><path d="M13.6 10.8a3.6 3.6 0 1 1-7.2 0 3.5984000000000003 3.5984000000000003 0 0 1 2.168-3.3000000000000003l0.1408 0.10960000000000002 0.6192000000000001 0.4808A2.7984000000000004 2.7984000000000004 0 0 0 7.200000000000001 10.8C7.200000000000001 12.344 8.456000000000001 13.6 10 13.6S12.8 12.344 12.8 10.8a2.7984000000000004 2.7984000000000004 0 0 0-2.128-2.7096l0.76-0.5904A3.5984000000000003 3.5984000000000003 0 0 1 13.6 10.8z m-3.6-3.2L12 6.0440000000000005 11.200000000000001 4.800000000000001H8.8L8 6.0440000000000005l1.2000000000000002 0.9336000000000001 0.8 0.6224000000000001z" fill="hsl(159, 88%, 100%)"/></g></svg>