<svg xmlns="http://www.w3.org/2000/svg" id="lighthouse" width="32" height="32" viewBox="0 0 20 20"><g><path d="M0,0 H20 V20 H0 Z" fill="none"/><path d="M5.5,1H14.5c2.485,0,4.5,2.015,4.5,4.5V14.5c0,2.485-2.015,4.5-4.5,4.5H5.5c-2.485,0-4.5-2.015-4.5-4.5V5.5C1,3.015,3.015,1,5.5,1Z" fill="hsl(320, 70%, 75%)" stroke="hsl(159, 88%, 100%)" stroke-linejoin="round" stroke-miterlimit="4px" stroke-width="1.2"/><path d="M7.6 8.8L4 9.6v-0.4l3.6-0.8V8.8z m0-2L4 6V6.4l3.6 0.8v-0.4z m4.800000000000001 0V7.200000000000001L16 6.4v-0.4l-3.6 0.8z m0 2L16 9.6v-0.4l-3.6-0.8V8.8zM10.4 9.6V5.6h2a0.40800000000000003 0.40800000000000003 0 0 0 0.16000000000000003-0.8l-2.4000000000000004-0.8a0.4 0.4 0 0 0-0.328 0l-2.4000000000000004 0.8a0.40800000000000003 0.40800000000000003 0 0 0 0.16000000000000003 0.8H9.6v4H8l-1.6 5.6000000000000005h7.2l-1.6-5.6000000000000005H10.4z" fill="hsl(159, 88%, 100%)"/></g></svg>