<svg xmlns="http://www.w3.org/2000/svg" id="religious-muslim" width="32" height="32" viewBox="0 0 20 20"><g><path d="M0,0 H20 V20 H0 Z" fill="none"/><path d="M5.5,1H14.5c2.485,0,4.5,2.015,4.5,4.5V14.5c0,2.485-2.015,4.5-4.5,4.5H5.5c-2.485,0-4.5-2.015-4.5-4.5V5.5C1,3.015,3.015,1,5.5,1Z" fill="hsl(210, 20%, 58%)" stroke="hsl(159, 88%, 100%)" stroke-linejoin="round" stroke-miterlimit="4px" stroke-width="1.2"/><path d="M13.6768 13.6768a5.2 5.2 0 1 1 0.384-6.9264 4.1176 4.1176 0 1 0 0 6.499200000000001 5.244800000000001 5.244800000000001 0 0 1-0.384 0.4272zM12.08 9.200000000000001H10.4L11.76 10.4 11.200000000000001 12.4 12.8 11.200000000000001l1.6 1.2000000000000002-0.5599999999999999-2L15.200000000000001 9.200000000000001h-1.6800000000000002l-0.7200000000000001-1.6-0.7200000000000001 1.6z" fill="hsl(159, 88%, 100%)"/></g></svg>