<svg xmlns="http://www.w3.org/2000/svg" id="shop" width="32" height="32" viewBox="0 0 20 20"><g><path d="M0,0 H20 V20 H0 Z" fill="none"/><path d="M5.5,1H14.5c2.485,0,4.5,2.015,4.5,4.5V14.5c0,2.485-2.015,4.5-4.5,4.5H5.5c-2.485,0-4.5-2.015-4.5-4.5V5.5C1,3.015,3.015,1,5.5,1Z" fill="hsl(210, 70%, 70%)" stroke="hsl(159, 88%, 100%)" stroke-linejoin="round" stroke-miterlimit="4px" stroke-width="1.2"/><path d="M14.664 8H13.200000000000001l-0.31200000000000006-1.864A1.6 1.6 0 0 0 11.76 4.944 3.008 3.008 0 0 0 10.895999999999999 4.800000000000001H9.104a3.008 3.008 0 0 0-0.8640000000000001 0.144 1.6 1.6 0 0 0-1.128 1.192L6.800000000000001 8H5.336a0.4 0.4 0 0 0-0.384 0.52l1.504 5.04A1.2000000000000002 1.2000000000000002 0 0 0 7.6 14.4h4.800000000000001a1.2000000000000002 1.2000000000000002 0 0 0 1.136-0.8400000000000001l1.504-5.04a0.4 0.4 0 0 0-0.376-0.52zM7.616 8l0.288-1.736a0.7280000000000001 0.7280000000000001 0 0 1 0.592-0.5599999999999999c0.1968-0.062400000000000004 0.4016-0.0968 0.6080000000000001-0.10400000000000001h1.7920000000000003c0.2088 0.0064 0.41600000000000004 0.0408 0.6160000000000001 0.10400000000000001a0.7280000000000001 0.7280000000000001 0 0 1 0.592 0.5599999999999999L12.384 8h-4.800000000000001z" fill="hsl(159, 88%, 100%)"/></g></svg>