<svg xmlns="http://www.w3.org/2000/svg" id="skateboard" width="32" height="32" viewBox="0 0 20 20"><g><path d="M0,0 H20 V20 H0 Z" fill="none"/><path d="M5.5,1H14.5c2.485,0,4.5,2.015,4.5,4.5V14.5c0,2.485-2.015,4.5-4.5,4.5H5.5c-2.485,0-4.5-2.015-4.5-4.5V5.5C1,3.015,3.015,1,5.5,1Z" fill="hsl(190, 60%, 60%)" stroke="hsl(159, 88%, 100%)" stroke-linejoin="round" stroke-miterlimit="4px" stroke-width="1.2"/><path d="M5 8.200000000000001V8h1.2000000000000002v0.2c0 0.5519999999999999 0.44800000000000006 1 1 1h5.6000000000000005c0.5519999999999999 0 1-0.44800000000000006 1-1V8h1.2000000000000002v0.2A2.2 2.2 0 0 1 12.8 10.4H7.200000000000001a2.2 2.2 0 0 1-2.2-2.2zM8 12a0.8 0.8 0 1 1-1.6 0 0.8 0.8 0 0 1 1.6 0z m5.6000000000000005 0a0.8 0.8 0 1 1-1.6 0 0.8 0.8 0 0 1 1.6 0z" fill="hsl(159, 88%, 100%)"/></g></svg>