<svg xmlns="http://www.w3.org/2000/svg" id="swimming" width="32" height="32" viewBox="0 0 20 20"><g><path d="M0,0 H20 V20 H0 Z" fill="none"/><path d="M5.5,1H14.5c2.485,0,4.5,2.015,4.5,4.5V14.5c0,2.485-2.015,4.5-4.5,4.5H5.5c-2.485,0-4.5-2.015-4.5-4.5V5.5C1,3.015,3.015,1,5.5,1Z" fill="hsl(190, 60%, 60%)" stroke="hsl(159, 88%, 100%)" stroke-linejoin="round" stroke-miterlimit="4px" stroke-width="1.2"/><path d="M12.0888 5.6c-0.08960000000000001 0-0.34800000000000003 0.1176-0.34800000000000003 0.1176l-2.6576000000000004 1.344c-0.35440000000000005 0.13999999999999999-0.4944 0.7048000000000001-0.2816 0.9872000000000001l0.776 1.1264-3.176 1.6232L8 11.9984l2.0016-1.2000000000000002 2 1.2000000000000002 0.8016000000000001-0.8016000000000001-2.4000000000000004-3.2 2.0456-1.2240000000000002c0.42240000000000005-0.21280000000000002 0.35440000000000005-0.5632 0.35440000000000005-0.776C12.8 5.828799999999999 12.5152 5.6 12.0888 5.6z m1.7128 2.4000000000000004a1.4000000000000001 1.4000000000000001 0 1 0-0.0024000000000000002 2.8008A1.4000000000000001 1.4000000000000001 0 0 0 13.8016 8zM6 12L4 13.200000000000001V14.4l2-1.2000000000000002L8 14.4l2.0016-1.2000000000000002 2 1.2000000000000002L13.6 13.200000000000001l2.4000000000000004 1.2000000000000002v-1.2000000000000002L13.6 12l-1.5984 1.2000000000000002-2-1.2000000000000002L8 13.200000000000001 6 12z" fill="hsl(159, 88%, 100%)"/></g></svg>