<?xml version="1.0" encoding="UTF-8"?>
<svg width="752pt" height="752pt" version="1.1" viewBox="0 0 752 752" xmlns="http://www.w3.org/2000/svg">
 <g>
  <path d="m565.43 364.16v11.84h11.84v11.84h-11.84v-11.84h-11.84v11.84h-11.84v-11.84h11.84v-11.84h-11.84v-11.836h-11.84v11.84l-11.84-0.003906v11.84h11.84v11.84h-11.84v-11.84h-11.84v11.84h-11.836v-11.84h11.84v-11.84h-11.84v-11.836h-11.84v11.84l-11.84-0.003906v11.84h11.84v11.84h-11.84v-11.84h-11.84v11.84h-11.84v-11.84h11.84v-11.84h-11.84v-11.836h-11.84v11.84l-11.84-0.003906v11.84h11.84v11.84h-11.84v-11.84h-11.84v11.84h-11.84v-11.84h11.84v-11.84h-11.84v-11.836h-11.84v11.84l-11.84-0.003906v11.84h11.84v11.84h-11.84v-11.84h-11.84v11.84h-11.836v-11.84h11.84v-11.84h-11.84v-11.836h-11.84v11.84l-11.84-0.003906v11.84h11.84v11.84h-11.84v-11.84h-11.84v11.84h-11.84v-11.84h11.84v-11.84h-11.84v-11.836h-11.84v11.84l-11.84-0.003906v11.84h11.84v11.84h-11.84v-11.84h-11.84v11.84h-11.84v-11.84h11.84v-11.84h-11.84v-11.836h-11.84v11.84l-11.84-0.003906v11.84h11.84v11.84h-11.84v-11.84h-11.84v11.84h-11.836v-11.84h11.84v-11.84h-11.84v-11.836h-11.84v11.84l-11.84-0.003906v11.84h11.84v11.84h-11.84v-11.84h-11.84v11.84h-11.84v11.84h11.84v11.84h-11.84v11.84h11.84v11.84h-11.84v11.84h11.84v11.84h-11.84v11.84h11.84v11.84h-11.84v106.55h426.22v-236.79h-11.84v11.84zm-367.02 142.07h-11.84v-11.836h11.84zm0-47.355h-11.84v-11.84h11.84zm0-23.68h-11.84v-11.84h11.84zm0-23.68h-11.84v-11.84h11.84zm23.676 71.039h-11.836v-11.84h11.84zm0-23.68h-11.836v-11.84h11.84zm0-23.68h-11.836v-11.84h11.84zm0-23.68h-11.836v-11.84h11.84zm23.68 94.715h-11.84v-11.836h11.84zm0-47.355h-11.84v-11.84h11.84zm0-23.68h-11.84v-11.84h11.84zm0-23.68h-11.84v-11.84h11.84zm23.68 71.039h-11.84v-11.84h11.84zm0-23.68h-11.84v-11.84h11.84zm0-23.68h-11.84v-11.84h11.84zm0-23.68h-11.84v-11.84h11.84zm23.68 94.715h-11.84v-11.836h11.84zm0-47.355h-11.84v-11.84h11.84zm0-23.68h-11.84v-11.84h11.84zm0-23.68h-11.84v-11.84h11.84zm23.68 71.039h-11.84v-11.84h11.84zm0-23.68h-11.84v-11.84h11.84zm0-23.68h-11.84v-11.84h11.84zm0-23.68h-11.84v-11.84h11.84zm23.68 94.715h-11.84v-11.836h11.84zm0-47.355h-11.84v-11.84h11.84zm0-23.68h-11.84v-11.84h11.84zm0-23.68h-11.84v-11.84h11.84zm23.676 71.039h-11.836v-11.84h11.84zm0-23.68h-11.836v-11.84h11.84zm0-23.68h-11.836v-11.84h11.84zm0-23.68h-11.836v-11.84h11.84zm23.68 94.715h-11.84v-11.836h11.84zm0-47.355h-11.84v-11.84h11.84zm0-23.68h-11.84v-11.84h11.84zm0-23.68h-11.84v-11.84h11.84zm23.68 71.039h-11.84v-11.84h11.84zm0-23.68h-11.84v-11.84h11.84zm0-23.68h-11.84v-11.84h11.84zm0-23.68h-11.84v-11.84h11.84zm23.68 94.715h-11.84v-11.836h11.84zm0-47.355h-11.84v-11.84h11.84zm0-23.68h-11.84v-11.84h11.84zm0-23.68h-11.84v-11.84h11.84zm23.68 71.039h-11.84v-11.84h11.84zm0-23.68h-11.84v-11.84h11.84zm0-23.68h-11.84v-11.84h11.84zm0-23.68h-11.84v-11.84h11.84zm23.68 94.715h-11.84v-11.836h11.84zm0-47.355h-11.84v-11.84h11.84zm0-23.68h-11.84v-11.84h11.84zm0-23.68h-11.84v-11.84h11.84zm23.676 71.039h-11.836v-11.84h11.84zm0-23.68h-11.836v-11.84h11.84zm0-23.68h-11.836v-11.84h11.84zm0-23.68h-11.836v-11.84h11.84zm23.68 94.715h-11.84v-11.836h11.84zm0-47.355h-11.84v-11.84h11.84zm0-23.68h-11.84v-11.84h11.84zm0-23.68h-11.84v-11.84h11.84zm23.68 71.039h-11.84v-11.84h11.84zm0-23.68h-11.84v-11.84h11.84zm0-23.68h-11.84v-11.84h11.84zm0-23.68h-11.84v-11.84h11.84zm23.68 94.715h-11.84v-11.836h11.84zm0-47.355h-11.84v-11.84h11.84zm0-23.68h-11.84v-11.84h11.84zm0-23.68h-11.84v-11.84h11.84z"/>
  <path d="m553.59 352.32h11.84v11.84h-11.84z"/>
  <path d="m565.43 340.48h11.84v11.84h-11.84z"/>
  <path d="m541.75 340.48h11.84v11.84h-11.84z"/>
  <path d="m553.59 328.64h11.84v11.84h-11.84z"/>
  <path d="m577.27 328.64h11.84v11.84h-11.84z"/>
  <path d="m529.91 328.64h11.84v11.84h-11.84z"/>
  <path d="m518.07 340.48h11.84v11.84h-11.84z"/>
  <path d="m494.4 340.48h11.84v11.84h-11.84z"/>
  <path d="m470.72 340.48h11.84v11.84h-11.84z"/>
  <path d="m482.56 328.64h11.84v11.84h-11.84z"/>
  <path d="m506.23 328.64h11.84v11.84h-11.84z"/>
  <path d="m458.88 328.64h11.84v11.84h-11.84z"/>
  <path d="m447.04 340.48h11.84v11.84h-11.84z"/>
  <path d="m423.36 340.48h11.84v11.84h-11.84z"/>
  <path d="m399.68 340.48h11.84v11.84h-11.84z"/>
  <path d="m411.52 328.64h11.84v11.84h-11.84z"/>
  <path d="m435.2 328.64h11.84v11.84h-11.84z"/>
  <path d="m387.84 328.64h11.84v11.84h-11.84z"/>
  <path d="m376 340.48h11.84v11.84h-11.84z"/>
  <path d="m352.32 340.48h11.84v11.84h-11.84z"/>
  <path d="m328.64 340.48h11.84v11.84h-11.84z"/>
  <path d="m340.48 328.64h11.84v11.84h-11.84z"/>
  <path d="m364.16 328.64h11.84v11.84h-11.84z"/>
  <path d="m316.8 328.64h11.84v11.84h-11.84z"/>
  <path d="m304.96 340.48h11.84v11.84h-11.84z"/>
  <path d="m281.29 340.48h11.84v11.84h-11.84z"/>
  <path d="m257.61 340.48h11.84v11.84h-11.84z"/>
  <path d="m269.45 328.64h11.84v11.84h-11.84z"/>
  <path d="m293.12 328.64h11.84v11.84h-11.84z"/>
  <path d="m245.77 328.64h11.84v11.84h-11.84z"/>
  <path d="m233.93 340.48h11.84v11.84h-11.84z"/>
  <path d="m210.25 340.48h11.84v11.84h-11.84z"/>
  <path d="m186.57 340.48h11.84v11.84h-11.84z"/>
  <path d="m198.41 328.64h11.84v11.84h-11.84z"/>
  <path d="m222.09 328.64h11.84v11.84h-11.84z"/>
  <path d="m174.73 328.64h11.84v11.84h-11.84z"/>
  <path d="m541.75 316.8h11.84v11.84h-11.84z"/>
  <path d="m565.43 316.8h11.84v11.84h-11.84z"/>
  <path d="m518.07 316.8h11.84v11.84h-11.84z"/>
  <path d="m470.72 316.8h11.84v11.84h-11.84z"/>
  <path d="m494.4 316.8h11.84v11.84h-11.84z"/>
  <path d="m447.04 316.8h11.84v11.84h-11.84z"/>
  <path d="m399.68 316.8h11.84v11.84h-11.84z"/>
  <path d="m423.36 316.8h11.84v11.84h-11.84z"/>
  <path d="m376 316.8h11.84v11.84h-11.84z"/>
  <path d="m328.64 316.8h11.84v11.84h-11.84z"/>
  <path d="m352.32 316.8h11.84v11.84h-11.84z"/>
  <path d="m304.96 316.8h11.84v11.84h-11.84z"/>
  <path d="m257.61 316.8h11.84v11.84h-11.84z"/>
  <path d="m281.29 316.8h11.84v11.84h-11.84z"/>
  <path d="m233.93 316.8h11.84v11.84h-11.84z"/>
  <path d="m186.57 316.8h11.84v11.84h-11.84z"/>
  <path d="m577.27 304.96h11.84v11.84h-11.84z"/>
  <path d="m529.91 304.96h11.84v11.84h-11.84z"/>
  <path d="m482.56 304.96h11.84v11.84h-11.84z"/>
  <path d="m435.2 304.96h11.84v11.84h-11.84z"/>
  <path d="m387.84 304.96h11.84v11.84h-11.84z"/>
  <path d="m340.48 304.96h11.84v11.84h-11.84z"/>
  <path d="m293.12 304.96h11.84v11.84h-11.84z"/>
  <path d="m245.77 304.96h11.84v11.84h-11.84z"/>
  <path d="m198.41 304.96h11.84v11.84h-11.84z"/>
  <path d="m553.59 281.29h11.84v11.84h-11.84z"/>
  <path d="m506.23 281.29h11.84v11.84h-11.84z"/>
  <path d="m458.88 281.29h11.84v11.84h-11.84z"/>
  <path d="m411.52 281.29h11.84v11.84h-11.84z"/>
  <path d="m364.16 281.29h11.84v11.84h-11.84z"/>
  <path d="m316.8 281.29h11.84v11.84h-11.84z"/>
  <path d="m269.45 281.29h11.84v11.84h-11.84z"/>
  <path d="m222.09 281.29h11.84v11.84h-11.84z"/>
  <path d="m174.73 281.29h11.84v11.84h-11.84z"/>
  <path d="m565.43 293.12h11.84v11.84h-11.84z"/>
  <path d="m518.07 293.12h11.84v11.84h-11.84z"/>
  <path d="m470.72 293.12h11.84v11.84h-11.84z"/>
  <path d="m423.36 293.12h11.84v11.84h-11.84z"/>
  <path d="m376 293.12h11.84v11.84h-11.84z"/>
  <path d="m328.64 293.12h11.84v11.84h-11.84z"/>
  <path d="m281.29 293.12h11.84v11.84h-11.84z"/>
  <path d="m233.93 293.12h11.84v11.84h-11.84z"/>
  <path d="m186.57 293.12h11.84v11.84h-11.84z"/>
  <path d="m541.75 293.12h11.84v11.84h-11.84z"/>
  <path d="m494.4 293.12h11.84v11.84h-11.84z"/>
  <path d="m447.04 293.12h11.84v11.84h-11.84z"/>
  <path d="m399.68 293.12h11.84v11.84h-11.84z"/>
  <path d="m352.32 293.12h11.84v11.84h-11.84z"/>
  <path d="m304.96 293.12h11.84v11.84h-11.84z"/>
  <path d="m257.61 293.12h11.84v11.84h-11.84z"/>
  <path d="m210.25 293.12h11.84v11.84h-11.84z"/>
  <path d="m162.89 293.12h11.84v11.84h-11.84z"/>
  <path d="m565.43 269.45h11.84v11.84h-11.84z"/>
  <path d="m518.07 269.45h11.84v11.84h-11.84z"/>
  <path d="m470.72 269.45h11.84v11.84h-11.84z"/>
  <path d="m423.36 269.45h11.84v11.84h-11.84z"/>
  <path d="m376 269.45h11.84v11.84h-11.84z"/>
  <path d="m328.64 269.45h11.84v11.84h-11.84z"/>
  <path d="m281.29 269.45h11.84v11.84h-11.84z"/>
  <path d="m233.93 269.45h11.84v11.84h-11.84z"/>
  <path d="m186.57 269.45h11.84v11.84h-11.84z"/>
  <path d="m541.75 269.45h11.84v11.84h-11.84z"/>
  <path d="m494.4 269.45h11.84v11.84h-11.84z"/>
  <path d="m447.04 269.45h11.84v11.84h-11.84z"/>
  <path d="m399.68 269.45h11.84v11.84h-11.84z"/>
  <path d="m352.32 269.45h11.84v11.84h-11.84z"/>
  <path d="m304.96 269.45h11.84v11.84h-11.84z"/>
  <path d="m257.61 269.45h11.84v11.84h-11.84z"/>
  <path d="m210.25 269.45h11.84v11.84h-11.84z"/>
  <path d="m162.89 269.45h11.84v11.84h-11.84z"/>
  <path d="m565.43 245.77h11.84v11.84h-11.84z"/>
  <path d="m518.07 245.77h11.84v11.84h-11.84z"/>
  <path d="m470.72 245.77h11.84v11.84h-11.84z"/>
  <path d="m423.36 245.77h11.84v11.84h-11.84z"/>
  <path d="m376 245.77h11.84v11.84h-11.84z"/>
  <path d="m328.64 245.77h11.84v11.84h-11.84z"/>
  <path d="m281.29 245.77h11.84v11.84h-11.84z"/>
  <path d="m233.93 245.77h11.84v11.84h-11.84z"/>
  <path d="m186.57 245.77h11.84v11.84h-11.84z"/>
  <path d="m541.75 245.77h11.84v11.84h-11.84z"/>
  <path d="m494.4 245.77h11.84v11.84h-11.84z"/>
  <path d="m447.04 245.77h11.84v11.84h-11.84z"/>
  <path d="m399.68 245.77h11.84v11.84h-11.84z"/>
  <path d="m352.32 245.77h11.84v11.84h-11.84z"/>
  <path d="m304.96 245.77h11.84v11.84h-11.84z"/>
  <path d="m257.61 245.77h11.84v11.84h-11.84z"/>
  <path d="m210.25 245.77h11.84v11.84h-11.84z"/>
  <path d="m162.89 245.77h11.84v11.84h-11.84z"/>
  <path d="m541.75 222.09h11.84v11.84h-11.84z"/>
  <path d="m494.4 222.09h11.84v11.84h-11.84z"/>
  <path d="m447.04 222.09h11.84v11.84h-11.84z"/>
  <path d="m399.68 222.09h11.84v11.84h-11.84z"/>
  <path d="m352.32 222.09h11.84v11.84h-11.84z"/>
  <path d="m304.96 222.09h11.84v11.84h-11.84z"/>
  <path d="m257.61 222.09h11.84v11.84h-11.84z"/>
  <path d="m210.25 222.09h11.84v11.84h-11.84z"/>
  <path d="m162.89 222.09h11.84v11.84h-11.84z"/>
  <path d="m565.43 198.41h11.84v11.84h-11.84z"/>
  <path d="m518.07 198.41h11.84v11.84h-11.84z"/>
  <path d="m470.72 198.41h11.84v11.84h-11.84z"/>
  <path d="m423.36 198.41h11.84v11.84h-11.84z"/>
  <path d="m376 198.41h11.84v11.84h-11.84z"/>
  <path d="m328.64 198.41h11.84v11.84h-11.84z"/>
  <path d="m281.29 198.41h11.84v11.84h-11.84z"/>
  <path d="m233.93 198.41h11.84v11.84h-11.84z"/>
  <path d="m186.57 198.41h11.84v11.84h-11.84z"/>
  <path d="m210.25 316.8h11.84v11.84h-11.84z"/>
  <path d="m162.89 316.8h11.84v11.84h-11.84z"/>
  <path d="m162.89 340.48h11.84v11.84h-11.84z"/>
  <path d="m174.73 352.32h11.84v11.84h-11.84z"/>
  <path d="m162.89 364.16h11.84v11.84h-11.84z"/>
 </g>
</svg>
