<?xml version="1.0" encoding="UTF-8"?>
<svg width="752pt" height="752pt" version="1.1" viewBox="0 0 752 752" xmlns="http://www.w3.org/2000/svg">
 <path d="m555.3 502.68v51.051l-51.055 0.003906v-25.527h-25.527v-25.527h-25.523v-25.527h-25.527v-25.527h-25.527v-25.527h-25.574v25.527h-25.527v25.527h-25.527v-25.527h-25.527l0.007813-51.047h-25.527v-25.574h-25.527l0.003906-76.578h-25.527v-51.055h-25.527v-51.051h51.051v25.527h51.051v25.527h76.578v25.527h25.574v25.527l51.055-0.003906v25.527h25.527v25.527l-25.527-0.003906v25.527h-25.527v25.574h25.527v25.527h25.527v25.527h25.527v25.527h25.527v25.527z"/>
</svg>
