<?xml version="1.0" encoding="UTF-8"?>
<svg width="752pt" height="752pt" version="1.1" viewBox="0 0 752 752" xmlns="http://www.w3.org/2000/svg">
 <g>
  <path d="m403.33 421.63v-36.414h18.277v-109.4h-18.277v-36.418h-36.418v-18.137h-54.652l-18.191-0.003906h-18.234v18.137h-36.418v36.418h-18.184v109.4h18.184v36.414h36.418v18.137h91.07v-18.137h18.281zm-36.422-18.281h-18.234v18.277h-36.418l-18.188-0.003906v-18.277h-36.418v-36.418h-18.234v-72.836h18.234v-36.418h36.418v-18.281h54.602v18.281h36.516v36.418h18.137v72.836h-18.137v36.418z"/>
  <path d="m567.28 512.61v-18.137h-18.234v-18.281h-18.184v-18.137h-18.234v-18.281h-18.184v-18.137h-18.234v-163.95h-18.184v-36.418h-18.234v-18.281h-36.461v-18.137h-18.137v-18.281h-127.54v18.281h-18.234v18.137h-36.418v18.281h-18.184v36.418h-18.281v145.67h18.281v36.414h18.184v18.281h36.418v18.137h18.234v18.281h127.54v-18.281h36.414v18.281h18.184v18.137h18.238v18.277h18.184v18.137h18.238v18.277h18.184v18.137h54.652v-18.137h18.184v-54.691zm-200.37-54.559v18.137h-91.074v-18.137h-18.184v-18.281h-36.418v-18.137h-18.234v-36.414h-18.184v-109.4h18.184v-36.418h18.234v-18.137h36.418v-18.281h18.184v-18.137h91.07v18.137h18.281v18.281h36.414v18.137h18.184v36.418h18.238v109.4h-18.23v36.414h-18.184v18.137h-36.414v18.281zm200.37 90.973h-18.234v18.277h-18.184v-18.277h-18.234v-18.137h-18.184v-18.277h-18.234v-18.137h-18.184v-18.281h-18.234v-36.418h36.422v18.281h18.238v18.137h18.184v18.281h18.234v18.137h18.184v18.277h18.234v18.137z"/>
 </g>
</svg>
